<svg width="31" height="34" viewBox="0 0 31 34" fill="none" xmlns="http://www.w3.org/2000/svg">
    <path d="M15.5 3.05176e-05C19.7108 3.05176e-05 20.2365 0.0212805 21.8899 0.102031C23.5406 0.187031 24.6644 0.471781 25.6525 0.892531C26.6716 1.32603 27.537 1.90828 28.3986 2.8532C29.2601 3.79811 29.7923 4.74586 30.1863 5.86503C30.5699 6.94878 30.8308 8.18128 30.907 9.99178C30.9845 11.8051 31 12.3817 31 17C31 21.6184 30.9806 22.1949 30.907 24.0083C30.8295 25.8174 30.5699 27.0513 30.1863 28.135C29.7971 29.2696 29.187 30.2974 28.3986 31.1469C27.6245 32.0122 26.6873 32.6814 25.6525 33.1075C24.6631 33.5269 23.5393 33.8144 21.8899 33.898C20.2365 33.983 19.7108 34 15.5 34C11.2892 34 10.7635 33.9788 9.11012 33.898C7.46067 33.813 6.33562 33.5269 5.3475 33.1075C4.31331 32.6802 3.37628 32.0111 2.60142 31.1469C1.81217 30.2981 1.20198 29.2701 0.813749 28.135C0.431417 27.0513 0.16921 25.8174 0.0930023 24.0083C0.015501 22.1949 0 21.6184 0 17C0 12.3817 0.0193768 11.8051 0.0930023 9.99178C0.170502 8.1827 0.431417 6.94736 0.813749 5.86503C1.2031 4.73059 1.81314 3.70281 2.60142 2.8532C3.37492 1.98711 4.31234 1.3178 5.3475 0.892531C6.33562 0.471781 7.46067 0.185614 9.11012 0.102031C10.7635 0.0170305 11.2892 3.05176e-05 15.5 3.05176e-05ZM15.5 3.06003C11.3628 3.06003 10.8694 3.0827 9.23542 3.16061C7.72417 3.23853 6.90396 3.51336 6.35888 3.74853C5.63296 4.05595 5.11888 4.42428 4.57379 5.01786C4.03259 5.61286 3.69675 6.17811 3.41646 6.97428C3.20463 7.57211 2.95146 8.4717 2.883 10.1292C2.80938 11.9227 2.79259 12.461 2.79259 17C2.79259 21.539 2.81196 22.0788 2.88817 23.8709C2.96696 25.5284 3.21883 26.4279 3.43196 27.0258C3.6841 27.7635 4.08045 28.4318 4.59317 28.9836C5.09417 29.5465 5.70304 29.98 6.37567 30.2529C6.91817 30.4853 7.75129 30.7629 9.26254 30.838C10.9081 30.9188 11.3925 30.9372 15.5387 30.9372C19.6863 30.9372 20.1707 30.9159 21.815 30.8324C23.3275 30.7459 24.1606 30.4697 24.7031 30.2359C25.3762 29.9628 25.9849 29.5276 26.4843 28.9624C27.0028 28.4166 27.4005 27.7478 27.6468 27.0074C27.86 26.4124 28.1105 25.4986 28.1893 23.8411C28.2475 22.0561 28.2681 21.505 28.2681 16.9788C28.2681 12.4511 28.2475 11.8986 28.1893 10.0924C28.1105 8.43486 27.86 7.52253 27.6468 6.92753C27.3756 6.12003 27.0281 5.56753 26.4843 4.97111C25.9431 4.37753 25.4381 3.99503 24.7031 3.69895C24.1606 3.46378 23.3456 3.18753 21.8343 3.10253C20.1875 3.03878 19.7031 3.01753 15.5581 3.01753L15.5 3.06003ZM15.5 8.27053C16.5452 8.27053 17.5802 8.49633 18.5459 8.93502C19.5115 9.37372 20.389 10.0167 21.128 10.8273C21.8671 11.638 22.4534 12.6003 22.8534 13.6594C23.2534 14.7185 23.4593 15.8537 23.4593 17C23.4593 18.1464 23.2534 19.2816 22.8534 20.3407C22.4534 21.3998 21.8671 22.3621 21.128 23.1727C20.389 23.9833 19.5115 24.6263 18.5459 25.065C17.5802 25.5037 16.5452 25.7295 15.5 25.7295C13.3891 25.7295 11.3646 24.8098 9.87196 23.1727C8.37931 21.5356 7.54075 19.3152 7.54075 17C7.54075 14.6848 8.37931 12.4644 9.87196 10.8273C11.3646 9.19024 13.3891 8.27053 15.5 8.27053ZM15.5 22.6667C18.3546 22.6667 20.6667 20.1309 20.6667 17C20.6667 13.8692 18.3546 11.3334 15.5 11.3334C12.6454 11.3334 10.3333 13.8692 10.3333 17C10.3333 20.1309 12.6454 22.6667 15.5 22.6667ZM5.36558 7.92628C5.38352 8.45417 5.58734 8.95387 5.9342 9.32038C6.28105 9.68689 6.74394 9.89166 7.22558 9.89166C7.70723 9.89166 8.17011 9.68689 8.51697 9.32038C8.86383 8.95387 9.06764 8.45417 9.08558 7.92628C9.08558 7.38524 8.88962 6.86636 8.5408 6.48378C8.19199 6.10121 7.71889 5.88628 7.22558 5.88628C6.73228 5.88628 6.25918 6.10121 5.91036 6.48378C5.56155 6.86636 5.36558 7.38524 5.36558 7.92628Z" fill="#E05F3C"/>
</svg>
