<svg width="1333" height="371" viewBox="0 0 1333 371" fill="none" xmlns="http://www.w3.org/2000/svg">
    <path d="M155.381 225.909C146.446 228.383 137.512 230.874 128.577 233.384C111.045 238.21 93.1639 241.669 75.0962 243.73C65.6497 244.851 56.2025 246.151 46.7556 247.379L16.9509 251.165C12.1114 251.787 7.27173 252.446 2.41459 253.015C2.05629 253.027 1.71262 253.16 1.43946 253.392C1.16629 253.624 0.979772 253.942 0.910099 254.294C0.584495 255.11 0.301015 255.943 0.0608775 256.789C0.0184009 257.006 0.0264025 257.23 0.084329 257.444C0.14224 257.658 0.248527 257.856 0.394923 258.022C2.65311 260.102 4.85741 262.27 7.31287 264.119C8.43767 264.962 9.81092 265.407 11.2165 265.384C15.1443 265.115 19.0734 264.506 23.002 264.023L47.128 260.963C56.2712 259.805 65.4321 258.682 74.5753 257.506C84.1119 256.189 93.6305 254.89 103.15 253.305C112.081 251.825 121.207 250.435 130.051 248.222C146.9 243.99 163.678 239.436 180.457 234.865C171.757 232.938 163.333 229.929 155.381 225.909Z" fill="#E05F3C"/>
    <path d="M419.45 247.113L374.241 246.927C359.891 246.868 347.105 241.181 335.884 229.866C324.662 218.552 319.086 203.06 319.155 183.391L319.782 31.1999L332.704 31.2532L332.079 182.838C332.016 198.199 336.218 210.877 344.684 220.871C353.151 230.866 364.434 235.88 378.534 235.914L419.496 236.083L419.45 247.113Z" fill="#E05F3C"/>
    <path d="M648.673 140.449C648.827 155.03 646.031 169.491 640.455 182.963C634.878 196.436 626.636 208.643 616.222 218.849C606.161 229.364 594.026 237.675 580.586 243.257C567.147 248.839 552.694 251.571 538.144 251.279C507.612 251.153 481.83 240.183 460.8 218.369C439.769 196.555 429.323 170.274 429.461 139.528C429.588 108.781 440.251 82.5346 461.449 60.7874C482.648 39.0401 508.513 28.2352 539.045 28.373C553.597 28.2009 568.027 31.0515 581.42 36.7445C594.813 42.4374 606.879 50.8487 616.853 61.4459C627.209 71.7898 635.365 84.1205 640.833 97.6971C646.301 111.274 648.968 125.816 648.673 140.449ZM635.144 140.394C635.396 127.394 633.079 114.472 628.326 102.37C623.574 90.267 616.479 79.222 607.448 69.8673C598.802 60.3323 588.228 52.7439 576.427 47.6057C564.626 42.4675 551.867 39.8968 538.997 40.0636C511.939 39.9521 489.196 49.6452 470.768 69.143C452.339 88.6409 443.074 112.127 442.972 139.601C442.859 167.076 451.883 190.584 470.044 210.125C488.204 229.667 510.914 239.494 538.175 239.606C565.447 239.719 588.398 230.027 607.029 210.53C616.098 201.263 623.249 190.297 628.073 178.262C632.898 166.227 635.3 153.359 635.144 140.394Z" fill="#E05F3C"/>
    <path d="M814.375 232.142C814.333 242.405 808.957 247.487 798.248 247.443C794.326 247.478 790.482 246.337 787.214 244.167C783.939 242.012 781.087 238.151 778.659 232.584L693.891 47.77C690.247 39.7589 687.396 35.7491 685.337 35.7406C682.874 35.7305 681.653 37.5105 681.638 41.2586L680.805 243.282L667.883 243.229L668.716 41.2053C668.62 36.8661 669.934 32.6127 672.46 29.0837C674.937 25.7205 679.031 24.0416 684.778 24.0653C688.512 23.8546 692.226 24.7251 695.477 26.5725C697.934 28.2247 700.477 31.7158 703.109 37.0455L792.412 230.177C793.828 233.057 795.571 234.492 797.624 234.5C800.087 234.51 801.326 232.57 801.342 228.679L802.183 24.6387L815.088 24.6919L814.375 232.142Z" fill="#E05F3C"/>
    <path d="M1011.87 137.021C1011.74 169.004 1001.89 194.898 982.329 214.7C962.769 234.503 938.645 244.345 909.957 244.227L878.901 244.099L878.949 232.408L908.774 232.531C935.617 232.642 957.229 223.301 973.608 204.508C989.987 185.716 998.23 163.202 998.339 136.965C998.451 109.705 989.026 86.8139 970.064 68.2923C951.102 49.7707 927.057 40.4439 897.929 40.3119L869.033 40.1928L868.192 244.055L855.27 244.001L856.159 28.431L902.85 28.6235C931.48 28.383 959.052 39.4299 979.596 59.3716C1001.23 79.7843 1011.98 105.667 1011.87 137.021Z" fill="#E05F3C"/>
    <path d="M1162.69 245.269L1138.09 245.167C1110.41 245.369 1083.73 234.845 1063.64 215.803C1042.52 196.333 1032.02 170.112 1032.16 137.14C1032.3 103.728 1042.91 77.4336 1063.99 58.256C1085.07 39.0785 1110.07 29.5255 1138.98 29.5971L1163.58 29.6985L1163.53 40.7643L1139.6 40.6656C1113.14 40.5566 1090.81 49.6389 1072.61 67.9121C1054.4 86.1853 1045.24 106.376 1045.14 128.484L1163.17 128.97L1163.12 140.036L1045.06 139.549C1044.93 168.868 1055.04 191.922 1075.36 208.712C1095.69 225.502 1118.26 233.924 1143.08 233.979L1162.72 234.06L1162.69 245.269Z" fill="#E05F3C"/>
    <path d="M1331.8 245.966L1317.97 245.909L1318.22 185.028C1318.27 172.725 1314.21 162.767 1306.04 155.154C1297.88 147.54 1284.98 143.691 1267.34 143.607L1223.06 143.424L1223.11 132.358L1258.16 132.503C1276.4 132.578 1290.31 128.28 1299.89 119.61C1309.47 110.939 1314.28 99.0244 1314.33 83.8653C1314.55 77.6231 1313.35 71.4129 1310.82 65.7038C1308.28 59.9947 1304.48 54.936 1299.71 50.9104C1289.9 42.4573 1277.43 38.1995 1262.28 38.137C1246.1 38.0703 1233.52 43.0935 1224.56 53.2063C1215.59 63.3192 1211.07 76.782 1211 93.595L1210.38 245.483L1197.47 245.43L1198.1 94.0952C1198.18 73.3913 1203.99 56.9113 1215.52 44.6553C1227.06 32.3993 1242.65 26.3594 1262.29 26.5356C1281.98 26.6168 1297.85 31.9059 1309.88 42.4028C1315.72 47.3419 1320.38 53.5367 1323.49 60.5248C1326.6 67.5129 1328.1 75.114 1327.87 82.7611C1327.81 96.0877 1324.89 107.35 1319.11 116.548C1313.32 125.746 1304.37 132.473 1292.25 136.731C1304.53 139.244 1314.24 144.77 1321.38 153.307C1328.52 161.844 1332.05 173.08 1331.95 187.013L1331.8 245.966Z" fill="#E05F3C"/>
    <path d="M208.495 126.944C213.816 125.451 218.941 123.333 223.764 120.636C230.791 116.582 237.389 111.825 243.456 106.438C247.36 102.769 250.234 98.1404 251.793 93.0145C253.906 87.0261 255.68 80.9289 257.632 74.8863C257.94 73.9238 257.638 73.4763 256.747 73.0978C232.309 61.7923 206.959 52.5705 180.969 45.5308C170.058 42.5051 159.148 39.4262 148.219 36.3826C131.014 45.6608 116.684 59.481 106.79 76.3391C96.8953 93.1971 91.8152 112.447 92.1028 131.992C92.3903 151.537 98.0344 170.629 108.421 187.189C118.807 203.748 133.537 217.141 151.008 225.909C165.922 221.77 180.813 217.667 195.68 213.599C214.531 208.448 232.605 201.258 250.68 193.925C252.272 193.289 253.845 192.599 255.401 191.928C255.721 191.838 256.018 191.68 256.271 191.465C256.525 191.251 256.73 190.984 256.871 190.683C257.013 190.382 257.089 190.055 257.093 189.723C257.097 189.39 257.029 189.061 256.895 188.757C255.926 185.718 255.01 182.68 254.023 179.678C253.036 176.675 251.923 173.976 251.114 171.063C249.232 164.58 245.282 158.891 239.865 154.864C232.286 148.871 224.527 143.181 215.511 139.521C212.981 138.493 210.343 137.715 207.758 136.847C204.585 135.817 203.078 133.419 203.929 130.62C204.276 129.646 204.887 128.786 205.693 128.137C206.499 127.489 207.469 127.076 208.495 126.944Z" fill="#E05F3C"/>
    <path d="M199.391 23.5995C187.864 23.5393 176.404 25.3486 165.456 28.9569C184.798 34.6767 204.267 39.9332 223.483 46.063C236.78 50.2944 249.68 55.7197 262.689 60.6281C265.612 61.7289 268.588 62.7588 271.403 64.1091C274.591 65.6393 277.69 67.4189 280.734 69.252C282.408 70.2584 282.758 72.009 282.035 74.2014C280.228 79.5485 278.421 84.8956 276.703 90.243C275.745 93.1662 274.769 96.0718 273.74 98.959C271.814 104.126 268.534 108.68 264.244 112.145C256.617 118.894 248.139 124.614 239.025 129.158C235.449 130.839 231.873 132.163 228.119 133.7C228.317 133.811 228.526 133.902 228.743 133.971C240.756 137.858 251.026 144.771 260.793 152.558C266.718 156.959 271.308 162.915 274.055 169.765C274.955 172.178 275.82 174.627 276.613 177.093C278.376 182.455 279.959 188.013 281.579 193.481C282.406 196.287 281.686 197.694 279.181 199.183C267.158 206.272 254.021 210.609 241.026 215.285C221.793 222.203 202.101 227.619 182.393 232.892C180.266 233.455 178.14 234.035 176.014 234.651C190.645 237.851 205.785 237.938 220.452 234.908C235.12 231.878 248.986 225.797 261.151 217.061C273.315 208.324 283.507 197.127 291.064 184.197C298.622 171.266 303.375 156.891 305.017 142.004C306.659 127.118 305.152 112.052 300.594 97.786C296.036 83.5194 288.529 70.3705 278.56 59.1932C268.591 48.0159 256.383 39.06 242.729 32.9063C229.075 26.7527 214.279 23.539 199.302 23.4741L199.391 23.5995Z" fill="#E05F3C"/>
    <path d="M5.81034 9.57572C6.39932 9.57815 6.96981 9.74117 7.59413 9.83298C19.4213 11.381 31.2487 12.8754 43.0576 14.5126C56.2758 16.3519 69.4574 18.3696 82.6763 20.0304C95.923 21.6454 109.036 24.2169 121.911 27.7244C132.144 30.5867 142.378 33.4489 152.611 36.3111C158.127 33.3385 163.895 30.8596 169.847 28.9036C169.188 28.7045 168.528 28.5234 167.869 28.3244C152.502 23.7632 137.117 19.3804 121.406 16.1029C102.057 12.0608 82.488 9.42768 62.9369 6.8126C46.5611 4.60327 30.1971 2.40596 13.845 0.22053C12.4185 -0.0561461 10.948 -0.00735979 9.54298 0.36337C6.94791 1.39219 4.41605 2.57374 1.96064 3.90181C1.77967 4.01543 1.63034 4.17293 1.5266 4.35974C1.42285 4.54654 1.36801 4.75654 1.36721 4.97023C2.27788 9.20407 0.994279 8.84193 5.81034 9.57572Z" fill="#E05F3C"/>
    <path d="M22.5053 246.137L22.5445 236.624C31.0298 234.874 39.4605 233.374 47.8566 231.605C60.2184 229.015 72.6508 226.621 84.8722 223.441C92.2873 221.508 99.3687 218.271 106.59 215.624C107.216 215.394 107.842 215.129 108.682 214.811C108.666 218.773 108.65 222.575 108.634 226.359C108.633 226.716 107.917 227.177 107.452 227.371C100.813 229.967 93.9446 231.935 86.9379 233.248C65.6686 237.551 44.3934 241.848 23.1122 246.139C22.91 246.149 22.7074 246.149 22.5053 246.137Z" fill="#E05F3C"/>
    <path d="M23.4061 27.5146L23.4363 20.1791C25.3452 20.4011 27.165 20.6049 28.9845 20.8445C41.2037 22.5547 53.459 24.1579 65.6598 25.9931C77.4857 27.8267 89.276 29.6601 101.065 31.6899C103.556 32.1645 106.02 32.7704 108.447 33.5052C108.839 33.6139 109.391 34.1339 109.389 34.4908C109.467 37.1684 109.367 39.8453 109.355 42.7367C107.251 42.1926 105.361 41.667 103.454 41.1951C97.5876 39.7073 91.7582 38.0056 85.8374 36.8032C79.2925 35.4733 72.6746 34.5536 66.0748 33.5625C56.6209 32.1492 47.1667 30.8074 37.7125 29.4654C33.0389 28.8215 28.276 28.1773 23.4061 27.5146Z" fill="#E05F3C"/>
    <path d="M688.871 346.795C683.731 345.295 679.989 343.467 677.643 341.312C675.319 339.135 674.163 336.464 674.176 333.297C674.191 329.714 675.63 326.762 678.494 324.44C681.379 322.098 685.113 320.936 689.696 320.955C692.821 320.968 695.6 321.583 698.032 322.802C700.486 324.02 702.375 325.695 703.699 327.825C705.044 329.956 705.712 332.281 705.702 334.802L699.67 334.777C699.682 332.027 698.816 329.868 697.072 328.298C695.329 326.707 692.863 325.905 689.676 325.892C686.717 325.88 684.402 326.527 682.73 327.832C681.079 329.117 680.249 330.916 680.239 333.229C680.231 335.083 681.006 336.659 682.563 337.957C684.141 339.234 686.814 340.412 690.58 341.49C694.367 342.568 697.321 343.757 699.44 345.058C701.581 346.337 703.158 347.834 704.172 349.546C705.207 351.259 705.719 353.271 705.71 355.584C705.694 359.271 704.245 362.224 701.361 364.441C698.477 366.637 694.628 367.726 689.816 367.706C686.691 367.693 683.777 367.087 681.073 365.888C678.37 364.669 676.283 363.015 674.812 360.925C673.363 358.836 672.643 356.468 672.654 353.822L678.685 353.847C678.674 356.597 679.675 358.778 681.69 360.391C683.725 361.983 686.44 362.786 689.836 362.8C693.003 362.813 695.432 362.177 697.125 360.892C698.818 359.607 699.669 357.85 699.678 355.621C699.687 353.392 698.913 351.67 697.356 350.455C695.798 349.22 692.97 348 688.871 346.795ZM745.599 321.81L745.472 352.748C745.433 357.039 744.065 360.544 741.366 363.262C738.688 365.98 735.057 367.496 730.472 367.811L728.878 367.867C723.899 367.846 719.936 366.486 716.988 363.787C714.041 361.087 712.556 357.383 712.534 352.674L712.662 321.675L718.599 321.699L718.472 352.511C718.459 355.803 719.355 358.369 721.159 360.21C722.964 362.03 725.544 362.947 728.898 362.961C732.294 362.975 734.891 362.079 736.691 360.274C738.511 358.469 739.427 355.921 739.441 352.629L739.568 321.786L745.599 321.81ZM771.644 349.012L760.956 348.968L760.88 367.374L754.849 367.349L755.037 321.849L770.099 321.911C775.224 321.933 779.157 323.115 781.897 325.46C784.658 327.805 786.03 331.206 786.011 335.665C786 338.498 785.219 340.963 783.668 343.061C782.139 345.159 780.007 346.723 777.274 347.754L787.882 367.11L787.88 367.485L781.443 367.459L771.644 349.012ZM760.976 344.061L770.195 344.099C773.174 344.112 775.542 343.351 777.298 341.816C779.075 340.282 779.969 338.223 779.98 335.64C779.992 332.827 779.157 330.668 777.475 329.161C775.815 327.654 773.401 326.883 770.235 326.849L761.047 326.812L760.976 344.061ZM819.494 347.521L800.4 347.443L800.317 367.536L794.317 367.512L794.505 322.012L822.692 322.128L822.672 327.066L800.485 326.974L800.42 342.537L819.514 342.615L819.494 347.521ZM829.692 367.657L829.88 322.158L844.755 322.219C849.692 322.24 853.396 323.276 855.867 325.327C858.358 327.379 859.596 330.405 859.58 334.405C859.571 336.53 858.959 338.413 857.744 340.054C856.529 341.674 854.878 342.928 852.791 343.815C855.246 344.513 857.178 345.833 858.587 347.776C860.016 349.699 860.726 351.994 860.715 354.66C860.698 358.744 859.362 361.946 856.706 364.269C854.051 366.591 850.307 367.742 845.473 367.722L829.692 367.657ZM835.78 346.401L835.712 362.776L845.619 362.817C848.41 362.828 850.611 362.119 852.221 360.688C853.852 359.236 854.673 357.24 854.683 354.698C854.706 349.219 851.738 346.467 845.78 346.442L835.78 346.401ZM835.8 341.589L844.862 341.626C847.487 341.637 849.584 340.989 851.151 339.683C852.74 338.377 853.539 336.599 853.548 334.349C853.559 331.849 852.837 330.034 851.383 328.903C849.93 327.751 847.713 327.169 844.734 327.157L835.859 327.12L835.8 341.589ZM904.654 346.685C904.636 351.143 903.87 355.036 902.356 358.363C900.842 361.669 898.707 364.192 895.95 365.931C893.193 367.669 889.981 368.531 886.314 368.516C882.731 368.501 879.557 367.613 876.794 365.852C874.03 364.069 871.884 361.55 870.356 358.294C868.849 355.017 868.083 351.232 868.059 346.94L868.073 343.659C868.091 339.284 868.867 335.423 870.402 332.075C871.936 328.727 874.093 326.173 876.871 324.414C879.67 322.634 882.861 321.751 886.444 321.766C890.09 321.781 893.295 322.68 896.058 324.462C898.843 326.223 900.978 328.784 902.464 332.145C903.95 335.484 904.684 339.373 904.666 343.81L904.654 346.685ZM898.698 343.723C898.72 338.327 897.654 334.187 895.499 331.303C893.344 328.399 890.319 326.938 886.423 326.922C882.631 326.907 879.636 328.342 877.437 331.229C875.258 334.095 874.127 338.09 874.043 343.215L874.03 346.559C874.008 351.788 875.085 355.907 877.26 358.916C879.456 361.904 882.481 363.406 886.335 363.422C890.21 363.438 893.216 362.044 895.352 359.241C897.489 356.416 898.6 352.368 898.684 347.098L898.698 343.723ZM938.053 356.229L918.99 356.15L914.66 368.008L908.473 367.982L926.035 322.554L931.285 322.576L948.504 368.147L942.347 368.122L938.053 356.229ZM920.823 351.22L936.292 351.284L928.63 329.971L920.823 351.22ZM971.392 349.835L960.704 349.791L960.629 368.197L954.597 368.172L954.785 322.673L969.847 322.735C974.972 322.756 978.905 323.939 981.645 326.284C984.406 328.628 985.778 332.03 985.759 336.488C985.748 339.321 984.967 341.787 983.416 343.885C981.887 345.983 979.756 347.547 977.022 348.577L987.63 367.934L987.628 368.309L981.191 368.282L971.392 349.835ZM960.725 344.885L969.943 344.923C972.922 344.935 975.29 344.174 977.047 342.64C978.824 341.105 979.718 339.047 979.728 336.463C979.74 333.651 978.905 331.491 977.224 329.984C975.563 328.477 973.15 327.707 969.983 327.673L960.796 327.635L960.725 344.885ZM994.066 368.335L994.253 322.835L1007.1 322.888C1011.06 322.905 1014.55 323.794 1017.59 325.557C1020.62 327.319 1022.95 329.818 1024.59 333.054C1026.24 336.29 1027.07 340.002 1027.07 344.19L1027.06 347.096C1027.04 351.388 1026.19 355.145 1024.51 358.367C1022.85 361.589 1020.48 364.059 1017.39 365.775C1014.32 367.492 1010.74 368.362 1006.66 368.387L994.066 368.335ZM1000.23 327.798L1000.09 363.454L1006.4 363.48C1011.02 363.499 1014.62 362.076 1017.2 359.212C1019.79 356.347 1021.1 352.259 1021.12 346.946L1021.13 344.29C1021.16 339.124 1019.95 335.108 1017.53 332.244C1015.12 329.359 1011.69 327.887 1007.23 327.827L1000.23 327.798ZM1049.87 356.346C1049.87 354.159 1050.49 352.151 1051.7 350.323C1052.94 348.494 1055.28 346.369 1058.73 343.945C1056.72 341.479 1055.37 339.494 1054.69 337.991C1054.01 336.488 1053.67 334.997 1053.68 333.518C1053.69 330.06 1054.72 327.356 1056.77 325.406C1058.82 323.456 1061.6 322.488 1065.1 322.503C1068.22 322.515 1070.8 323.443 1072.84 325.284C1074.87 327.105 1075.88 329.401 1075.87 332.172C1075.86 334.005 1075.39 335.701 1074.44 337.26C1073.52 338.798 1071.9 340.416 1069.58 342.115L1066.23 344.57L1076.3 356.705C1077.73 354.003 1078.45 350.995 1078.46 347.683L1083.68 347.704C1083.66 353.017 1082.36 357.418 1079.78 360.907L1086.25 368.715L1079.32 368.687L1076.3 365.08C1074.75 366.449 1072.93 367.494 1070.85 368.214C1068.78 368.914 1066.68 369.259 1064.53 369.251C1060.09 369.232 1056.54 368.041 1053.86 365.675C1051.18 363.31 1049.85 360.2 1049.87 356.346ZM1064.55 364.532C1067.61 364.545 1070.42 363.389 1072.97 361.067L1061.93 347.74L1060.9 348.485C1057.41 351.034 1055.66 353.662 1055.65 356.37C1055.64 358.828 1056.42 360.8 1058 362.286C1059.6 363.772 1061.78 364.52 1064.55 364.532ZM1059.46 333.354C1059.45 335.354 1060.67 337.859 1063.12 340.87L1066.82 338.291C1068.24 337.297 1069.21 336.353 1069.73 335.459C1070.26 334.545 1070.52 333.442 1070.53 332.15C1070.53 330.754 1070.02 329.596 1068.98 328.675C1067.94 327.733 1066.63 327.259 1065.05 327.252C1063.34 327.245 1061.98 327.823 1060.98 328.986C1059.97 330.127 1059.47 331.584 1059.46 333.354ZM1107.63 368.803L1107.81 323.304L1120.66 323.357C1124.62 323.373 1128.11 324.262 1131.15 326.025C1134.18 327.787 1136.52 330.287 1138.15 333.523C1139.8 336.759 1140.63 340.47 1140.63 344.658L1140.62 347.564C1140.6 351.856 1139.75 355.613 1138.07 358.835C1136.42 362.057 1134.04 364.527 1130.95 366.243C1127.88 367.96 1124.3 368.83 1120.22 368.855L1107.63 368.803ZM1113.79 328.266L1113.65 363.922L1119.96 363.948C1124.58 363.967 1128.18 362.544 1130.76 359.68C1133.35 356.815 1134.66 352.727 1134.68 347.415L1134.7 344.758C1134.72 339.592 1133.51 335.576 1131.09 332.712C1128.68 329.827 1125.25 328.355 1120.79 328.295L1113.79 328.266ZM1175.43 348.051L1155.71 347.97L1155.65 364.095L1178.55 364.189L1178.53 369.096L1149.63 368.976L1149.81 323.477L1178.41 323.595L1178.39 328.532L1155.79 328.439L1155.73 343.064L1175.45 343.145L1175.43 348.051ZM1199.49 348.901C1194.35 347.4 1190.61 345.572 1188.26 343.417C1185.94 341.24 1184.78 338.569 1184.8 335.402C1184.81 331.819 1186.25 328.867 1189.11 326.545C1192 324.203 1195.73 323.041 1200.32 323.06C1203.44 323.073 1206.22 323.689 1208.65 324.907C1211.11 326.125 1213 327.8 1214.32 329.93C1215.67 332.061 1216.33 334.387 1216.32 336.907L1210.29 336.882C1210.3 334.133 1209.44 331.973 1207.69 330.403C1205.95 328.812 1203.48 328.011 1200.3 327.997C1197.34 327.985 1195.02 328.632 1193.35 329.938C1191.7 331.222 1190.87 333.021 1190.86 335.334C1190.85 337.188 1191.63 338.764 1193.18 340.062C1194.76 341.339 1197.43 342.517 1201.2 343.595C1204.99 344.673 1207.94 345.862 1210.06 347.163C1212.2 348.443 1213.78 349.939 1214.79 351.651C1215.83 353.364 1216.34 355.376 1216.33 357.689C1216.32 361.376 1214.87 364.329 1211.98 366.546C1209.1 368.742 1205.25 369.831 1200.44 369.811C1197.31 369.798 1194.4 369.192 1191.69 367.994C1188.99 366.774 1186.9 365.12 1185.43 363.03C1183.98 360.941 1183.26 358.573 1183.27 355.928L1189.31 355.952C1189.29 358.702 1190.3 360.884 1192.31 362.496C1194.35 364.088 1197.06 364.891 1200.46 364.905C1203.62 364.918 1206.05 364.282 1207.75 362.997C1209.44 361.713 1210.29 359.956 1210.3 357.726C1210.31 355.497 1209.53 353.775 1207.98 352.561C1206.42 351.325 1203.59 350.105 1199.49 348.901ZM1230.44 369.31L1224.44 369.285L1224.63 323.785L1230.63 323.81L1230.44 369.31ZM1275.06 363.525C1273.51 365.727 1271.34 367.374 1268.57 368.467C1265.81 369.539 1262.6 370.067 1258.94 370.052C1255.23 370.037 1251.94 369.159 1249.07 367.418C1246.2 365.656 1243.99 363.167 1242.41 359.953C1240.87 356.738 1240.08 353.016 1240.05 348.787L1240.07 344.818C1240.1 337.964 1241.71 332.658 1244.92 328.9C1248.14 325.143 1252.65 323.276 1258.44 323.3C1263.19 323.319 1267.01 324.554 1269.89 327.003C1272.78 329.432 1274.54 332.876 1275.16 337.337L1269.16 337.313C1268.06 331.287 1264.49 328.262 1258.45 328.237C1254.43 328.221 1251.37 329.625 1249.28 332.449C1247.2 335.253 1246.15 339.332 1246.1 344.686L1246.09 348.405C1246.07 353.509 1247.22 357.577 1249.54 360.607C1251.86 363.617 1255.01 365.13 1258.99 365.146C1261.24 365.155 1263.21 364.913 1264.9 364.42C1266.59 363.927 1267.99 363.089 1269.09 361.906L1269.14 351.688L1258.61 351.644L1258.63 346.769L1275.13 346.837L1275.06 363.525ZM1320.03 369.679L1314 369.654L1291.24 334.497L1291.09 369.56L1285.06 369.535L1285.25 324.035L1291.28 324.06L1314.11 359.373L1314.25 324.155L1320.22 324.179L1320.03 369.679Z" fill="#E05F3C"/>
</svg>
