<svg width="48" height="34" viewBox="0 0 48 34" fill="none" xmlns="http://www.w3.org/2000/svg">
    <path d="M46.9982 5.31115C46.725 4.28269 46.1892 3.3448 45.4446 2.59134C44.7 1.83788 43.7727 1.29528 42.7554 1.01783C39.0107 2.06528e-07 24 0 24 0C24 0 8.98929 -2.06528e-07 5.24464 1.01242C4.22689 1.28896 3.29906 1.83126 2.55432 2.58486C1.80957 3.33846 1.27414 4.27683 1.00179 5.30573C-2.04359e-07 9.09554 0 17 0 17C0 17 -2.04359e-07 24.9045 1.00179 28.6889C1.55357 30.7787 3.18214 32.4245 5.24464 32.9822C8.98929 34 24 34 24 34C24 34 39.0107 34 42.7554 32.9822C44.8232 32.4245 46.4464 30.7787 46.9982 28.6889C48 24.9045 48 17 48 17C48 17 48 9.09554 46.9982 5.31115ZM19.2321 24.2548V9.74522L31.6607 16.9459L19.2321 24.2548Z" fill="#E05F3C"/>
</svg>
