<svg width="307" height="267" viewBox="0 0 307 267" fill="none" xmlns="http://www.w3.org/2000/svg">
    <path d="M155.381 225.909C146.446 228.383 137.512 230.874 128.577 233.384C111.045 238.21 93.1639 241.669 75.0962 243.73C65.6497 244.851 56.2025 246.151 46.7556 247.379L16.9509 251.165C12.1114 251.787 7.27173 252.446 2.41459 253.015C2.05629 253.027 1.71262 253.16 1.43946 253.392C1.16629 253.624 0.979772 253.942 0.910099 254.294C0.584495 255.11 0.301015 255.943 0.0608775 256.789C0.0184009 257.006 0.0264025 257.23 0.084329 257.444C0.14224 257.658 0.248527 257.856 0.394923 258.022C2.65311 260.102 4.85741 262.27 7.31287 264.119C8.43767 264.962 9.81092 265.407 11.2165 265.384C15.1443 265.115 19.0734 264.506 23.002 264.023L47.128 260.963C56.2712 259.805 65.4321 258.682 74.5753 257.506C84.1119 256.189 93.6305 254.89 103.15 253.305C112.081 251.825 121.207 250.435 130.051 248.222C146.9 243.99 163.678 239.436 180.457 234.865C171.757 232.938 163.333 229.929 155.381 225.909Z" fill="#E05F3C"/>
    <path d="M208.495 126.944C213.816 125.451 218.941 123.333 223.764 120.636C230.791 116.582 237.389 111.825 243.456 106.438C247.36 102.769 250.234 98.1404 251.793 93.0145C253.906 87.0261 255.68 80.9289 257.632 74.8863C257.94 73.9238 257.638 73.4763 256.747 73.0978C232.309 61.7923 206.959 52.5705 180.969 45.5308C170.058 42.5051 159.148 39.4262 148.219 36.3826C131.014 45.6608 116.684 59.481 106.79 76.3391C96.8953 93.1971 91.8152 112.447 92.1028 131.992C92.3903 151.537 98.0344 170.629 108.421 187.189C118.807 203.748 133.537 217.141 151.008 225.909C165.922 221.77 180.813 217.667 195.68 213.599C214.531 208.448 232.605 201.258 250.68 193.925C252.272 193.289 253.845 192.599 255.401 191.928C255.721 191.838 256.018 191.68 256.271 191.465C256.525 191.251 256.73 190.984 256.871 190.683C257.013 190.382 257.089 190.055 257.093 189.723C257.097 189.39 257.029 189.061 256.895 188.757C255.926 185.718 255.01 182.68 254.023 179.678C253.036 176.675 251.923 173.976 251.114 171.063C249.232 164.58 245.282 158.891 239.865 154.864C232.286 148.871 224.527 143.181 215.511 139.521C212.981 138.493 210.343 137.715 207.758 136.847C204.585 135.817 203.078 133.419 203.929 130.62C204.276 129.646 204.887 128.786 205.693 128.137C206.499 127.489 207.469 127.076 208.495 126.944Z" fill="#E05F3C"/>
    <path d="M199.391 23.5995C187.864 23.5393 176.404 25.3486 165.456 28.9569C184.798 34.6767 204.267 39.9332 223.483 46.063C236.78 50.2944 249.68 55.7197 262.689 60.6281C265.612 61.7289 268.588 62.7588 271.403 64.1091C274.591 65.6393 277.69 67.4189 280.734 69.252C282.408 70.2584 282.758 72.009 282.035 74.2014C280.228 79.5485 278.421 84.8956 276.703 90.243C275.745 93.1662 274.769 96.0718 273.74 98.959C271.814 104.126 268.534 108.68 264.244 112.145C256.617 118.894 248.139 124.614 239.025 129.158C235.449 130.839 231.873 132.163 228.119 133.7C228.317 133.811 228.526 133.902 228.743 133.971C240.756 137.858 251.026 144.771 260.793 152.558C266.718 156.959 271.308 162.915 274.055 169.765C274.955 172.178 275.82 174.627 276.613 177.093C278.376 182.455 279.959 188.013 281.579 193.481C282.406 196.287 281.686 197.694 279.181 199.183C267.158 206.272 254.021 210.609 241.026 215.285C221.793 222.203 202.101 227.619 182.393 232.892C180.266 233.455 178.14 234.035 176.014 234.651C190.645 237.851 205.785 237.938 220.452 234.908C235.12 231.878 248.986 225.797 261.151 217.061C273.315 208.324 283.507 197.127 291.064 184.197C298.622 171.266 303.375 156.891 305.017 142.004C306.659 127.118 305.152 112.052 300.594 97.786C296.036 83.5194 288.529 70.3705 278.56 59.1932C268.591 48.0159 256.383 39.06 242.729 32.9063C229.075 26.7527 214.279 23.539 199.302 23.4741L199.391 23.5995Z" fill="#E05F3C"/>
    <path d="M5.81034 9.57572C6.39932 9.57815 6.96981 9.74117 7.59413 9.83298C19.4213 11.381 31.2487 12.8754 43.0576 14.5126C56.2758 16.3519 69.4574 18.3696 82.6763 20.0304C95.923 21.6454 109.036 24.2169 121.911 27.7244C132.144 30.5867 142.378 33.4489 152.611 36.3111C158.127 33.3385 163.895 30.8596 169.847 28.9036C169.188 28.7045 168.528 28.5234 167.869 28.3244C152.502 23.7632 137.117 19.3804 121.406 16.1029C102.057 12.0608 82.488 9.42768 62.9369 6.8126C46.5611 4.60327 30.1971 2.40596 13.845 0.22053C12.4185 -0.0561461 10.948 -0.00735979 9.54298 0.36337C6.94791 1.39219 4.41605 2.57374 1.96064 3.90181C1.77967 4.01543 1.63034 4.17293 1.5266 4.35974C1.42285 4.54654 1.36801 4.75654 1.36721 4.97023C2.27788 9.20407 0.994279 8.84193 5.81034 9.57572Z" fill="#E05F3C"/>
    <path d="M22.5053 246.137L22.5445 236.624C31.0298 234.874 39.4605 233.374 47.8566 231.605C60.2184 229.015 72.6508 226.621 84.8722 223.441C92.2873 221.508 99.3687 218.271 106.59 215.624C107.216 215.394 107.842 215.129 108.682 214.811C108.666 218.773 108.65 222.575 108.634 226.359C108.633 226.716 107.917 227.177 107.452 227.371C100.813 229.967 93.9446 231.935 86.9379 233.248C65.6686 237.551 44.3934 241.848 23.1122 246.139C22.91 246.149 22.7074 246.149 22.5053 246.137Z" fill="#E05F3C"/>
    <path d="M23.4061 27.5146L23.4363 20.1791C25.3452 20.4011 27.165 20.6049 28.9845 20.8445C41.2037 22.5547 53.459 24.1579 65.6598 25.9931C77.4857 27.8267 89.276 29.6601 101.065 31.6899C103.556 32.1645 106.02 32.7704 108.447 33.5052C108.839 33.6139 109.391 34.1339 109.389 34.4908C109.467 37.1684 109.367 39.8453 109.355 42.7367C107.251 42.1926 105.361 41.667 103.454 41.1951C97.5876 39.7073 91.7582 38.0056 85.8374 36.8032C79.2925 35.4733 72.6746 34.5536 66.0748 33.5625C56.6209 32.1492 47.1667 30.8074 37.7125 29.4654C33.0389 28.8215 28.276 28.1773 23.4061 27.5146Z" fill="#E05F3C"/>
</svg>
